<?xml version="1.0" encoding="UTF-8"?>
<!-- Generator: Adobe Illustrator 21.1.0, SVG Export Plug-In . SVG Version: 6.00 Build 0)  -->
<svg width="412.3" height="204" version="1.1" viewBox="0 0 412.3 204" xml:space="preserve" xmlns="http://www.w3.org/2000/svg" xmlns:cc="http://creativecommons.org/ns#" xmlns:dc="http://purl.org/dc/elements/1.1/" xmlns:rdf="http://www.w3.org/1999/02/22-rdf-syntax-ns#"><metadata><rdf:RDF><cc:Work rdf:about=""><dc:format>image/svg+xml</dc:format><dc:type rdf:resource="http://purl.org/dc/dcmitype/StillImage"/><dc:title/></cc:Work></rdf:RDF></metadata>
<style type="text/css">
	.Arched_x0020_Green{fill:url(#SVGID_1_);stroke:#FFFFFF;stroke-width:0.25;stroke-miterlimit:1;}
	.st0{fill-rule:evenodd;clip-rule:evenodd;fill:url(#SVGID_2_);}
	.st1{fill-rule:evenodd;clip-rule:evenodd;fill:#FFFFFF;}
</style>
<linearGradient id="SVGID_1_" x2=".7071" y1="612" y2="611.29" gradientUnits="userSpaceOnUse">
	<stop stop-color="#20AC4B" offset="0"/>
	<stop stop-color="#19361A" offset=".9831"/>
</linearGradient>
<g transform="translate(-200,-209.5)">
			<linearGradient id="SVGID_2_" x1="406.14" x2="406.14" y1="209.46" y2="413.46" gradientUnits="userSpaceOnUse">
				<stop stop-color="#00B9F2" offset="0"/>
				<stop stop-color="#00A0DF" offset=".2132"/>
				<stop stop-color="#008BCF" offset=".4462"/>
				<stop stop-color="#007DC4" offset=".6625"/>
				<stop stop-color="#0074BE" offset=".8538"/>
				<stop stop-color="#0072BC" offset="1"/>
			</linearGradient>
			<polyline class="st0" points="200 413.5 408.4 413.5 612.3 209.5 200 209.5 200 413.5" clip-rule="evenodd" fill="url(#SVGID_2_)" fill-rule="evenodd"/>
		<path class="st1" d="m444.7 247.8h-40.6v96.5l-35.5-96.5h-35.2l-30.3 80.7c-3.2-20.4-24.3-27.4-40.8-32.6-10.9-3.5-22.5-8.7-22.4-14.4 0.1-4.7 6.2-9 18.4-8.4 8.2 0.4 15.4 1.1 29.7 8l14.1-24.6c-13.1-6.7-31.2-10.9-46-10.9h-0.1c-17.3 0-31.7 5.6-40.6 14.8-6.2 6.4-9.6 14.6-9.7 23.7-0.2 12.5 4.3 21.3 13.9 28.3 8.1 5.9 18.5 9.8 27.6 12.6 11.3 3.5 20.5 6.5 20.4 13-0.1 2.4-1 4.6-2.7 6.3-2.8 2.9-7.1 4-13.1 4.1-11.5 0.2-20-1.6-33.6-9.6l-12.5 24.9c13.5 7.7 29.6 12.2 46 12.2h2.1c14.2-0.3 25.7-4.3 34.9-11.7 0.5-0.4 1-0.8 1.5-1.3l-4.1 10.9h36.9l6.2-18.8c6.5 2.2 13.8 3.4 21.7 3.4 7.6 0 14.8-1.2 21.2-3.3l6 18.6h60.1v-39h13.1c31.7 0 50.5-16.1 50.5-43.2-0.1-29.9-18.3-43.7-57.1-43.7zm-93.8 82.6c-4.7 0-9.2-0.8-13-2.3l12.9-40.6h0.2l12.6 40.7c-3.8 1.4-8.1 2.2-12.7 2.2zm96.2-23.3h-8.9v-32.7h8.9c11.9 0 21.4 4 21.4 16.1 0 12.6-9.5 16.6-21.4 16.6" clip-rule="evenodd" fill="#fff" fill-rule="evenodd"/>
</g>
</svg>
